<mxfile host="app.diagrams.net" modified="2023-10-22T04:14:18.623Z" agent="Mozilla/5.0 (Windows NT 10.0; Win64; x64) AppleWebKit/537.36 (KHTML, like Gecko) Chrome/118.0.0.0 Safari/537.36" version="22.0.6" etag="hFgHYOcYv6nWUr6khbTR" type="github">
  <diagram name="第 1 页" id="4Hz0rkFYBHFQYvL2XjP1">
    <mxGraphModel>
      <root>
        <mxCell id="0" />
        <mxCell id="1" parent="0" />
      </root>
    </mxGraphModel>
  </diagram>
</mxfile>
